<svg width="512" height="512" viewBox="0 0 512 512" fill="none" xmlns="http://www.w3.org/2000/svg">
  <!-- airKUNA — monokromatska (jednobojna, navy) verzija. Silueta kune: openclipart "Marten" (CC0), zrcaljena udesno. -->
  <rect width="512" height="512" rx="32" fill="#FFFFFF"/>

  <circle cx="256" cy="256" r="144" fill="none" stroke="#002F6C" stroke-width="12"/>

  <g transform="translate(256,260) scale(-0.31,0.31) translate(-419.42478,-132.69848)">
    <g transform="translate(119.76008,-403.31812)">
      <g transform="matrix(0.03830278,-0.01059917,0.01059916,0.03830277,-4633.8325,295.61431)">
        <path fill="#002F6C" d="m 109470,36998 c 220,-139 455,-105 691,-67 191,-72 410,-96 649,-88 102,-56 220,-95 354,-119 71,-56 75,-115 10,-179 -61,-72 -93,-145 -98,-217 -379,-219 -519,-554 -663,-887 -215,-57 -317,-129 -340,-210 -104,-10 -208,-21 -312,-31 -490,53 -617,-105 -792,-235 -146,-48 -272,-129 -354,-280 -54,-68 -107,-135 -161,-203 -134,-170 -93,-396 109,-382 143,16 284,17 415,-41 153,-68 381,-67 554,-53 205,-12 334,-144 535,-330 -1,-79 -2,-159 -3,-238 -32,-86 9,-123 123,-112 267,8 424,133 533,312 310,54 554,202 719,463 412,2 690,157 724,310 25,111 -97,240 -282,377 l 3,84 c 110,96 184,192 221,288 231,89 453,208 659,382 589,-68 1583,359 2927,1217 872,156 1718,397 2529,748 171,5 343,10 514,15 1457,-215 2868,-50 4179,952 495,60 939,216 1368,393 318,131 643,182 970,213 530,51 1068,181 1599,429 599,134 1157,321 1504,741 246,297 186,571 -127,685 -189,399 -565,416 -1132,219 -388,71 -817,-240 -1205,-533 -540,-173 -1036,-484 -1527,-816 -254,-190 -513,-312 -763,-366 -197,-42 -373,-69 -491,0 -58,34 -52,55 0,98 137,115 232,286 263,493 27,182 -2,392 9,614 11,235 153,405 389,550 161,99 354,203 632,243 132,25 170,103 166,204 74,354 143,714 272,1035 37,91 106,135 212,212 359,260 173,549 -155,612 -286,254 -534,423 -827,491 -235,79 -331,-17 -409,-132 -142,-3 -213,-59 -273,-151 -287,-211 -43,-578 644,-420 14,-80 72,-106 131,-104 -41,-178 -65,-375 13,-561 -61,-39 -113,-89 -203,-118 -247,-79 -481,-192 -667,-366 -351,-331 -900,-607 -1428,-884 -436,-22 -760,-223 -1103,-393 l -462,-6 c -135,-45 -246,2 -327,99 -138,167 -295,138 -484,116 -215,-25 -433,-8 -650,-13 -107,27 -212,59 -327,62 -243,-14 -480,-16 -641,120 -134,141 -268,131 -401,79 -101,-46 -173,-96 -215,-149 -170,-35 -278,-78 -314,-128 -284,-80 -364,-160 -352,-240 -377,-91 -198,-387 47,-397 289,-12 552,43 834,83 236,66 530,27 723,-148 125,-113 172,-211 324,-295 -488,-32 -847,-118 -1113,-285 -713,-450 -1285,-559 -1738,-178 -121,69 -216,96 -344,47 -110,-42 -250,-43 -359,-18 -258,58 -513,26 -769,-66 -376,94 -753,114 -1129,37 -319,168 -552,187 -699,58 -140,-78 -273,-159 -397,-244 -202,-30 -289,-82 -298,-149 -259,-29 -291,-124 -290,-227 -107,-124 -67,-218 41,-298 192,-80 391,-109 612,4 133,62 229,124 310,186 148,-18 274,0 385,42 82,-129 314,-133 567,-120 127,-84 278,-144 472,-161 -6,-30 -11,-61 -17,-91 -255,-68 -386,-251 -513,-439 -391,-6 -673,-172 -951,-343 -230,19 -416,-57 -594,-164 -145,12 -308,18 -461,-22 -303,82 -589,77 -860,0 -190,18 -344,-1 -501,-17 -179,206 -381,242 -600,136 -121,-152 -292,-254 -509,-310 -164,-53 -216,-126 -244,-203 -201,-124 -160,-247 33,-339 146,-70 327,-83 604,54 90,33 190,57 304,66 z"/>
      </g>
    </g>
  </g>
</svg>
